<svg xmlns="http://www.w3.org/2000/svg" xmlns:xlink="http://www.w3.org/1999/xlink" width="1080" zoomAndPan="magnify" viewBox="0 0 810 809.999993" height="1080" preserveAspectRatio="xMidYMid meet" version="1.2"><g id="c2cb8ebfd9"><path style=" stroke:none;fill-rule:nonzero;fill:#ffbd59;fill-opacity:1;" d="M 404.996094 130.027344 C 406.800781 130.027344 408.59375 130.117188 410.386719 130.292969 C 412.179688 130.46875 413.960938 130.730469 415.726562 131.082031 C 417.492188 131.433594 419.238281 131.871094 420.960938 132.394531 C 422.683594 132.917969 424.378906 133.523438 426.042969 134.214844 C 427.707031 134.902344 429.332031 135.671875 430.921875 136.519531 C 432.511719 137.371094 434.054688 138.292969 435.550781 139.296875 C 437.046875 140.296875 438.492188 141.367188 439.886719 142.511719 C 441.277344 143.652344 442.609375 144.859375 443.882812 146.132812 C 445.15625 147.40625 446.367188 148.742188 447.507812 150.132812 C 448.652344 151.527344 449.722656 152.96875 450.722656 154.46875 C 451.722656 155.964844 452.648438 157.507812 453.5 159.097656 C 454.347656 160.6875 455.117188 162.3125 455.804688 163.976562 C 456.496094 165.640625 457.101562 167.332031 457.625 169.058594 C 458.148438 170.78125 458.582031 172.527344 458.933594 174.292969 C 459.285156 176.058594 459.550781 177.839844 459.726562 179.628906 C 459.902344 181.421875 459.992188 183.21875 459.992188 185.019531 C 459.992188 205.367188 448.992188 223.242188 432.496094 232.589844 L 432.496094 267.511719 L 459.992188 267.511719 C 463.140625 267.511719 466.289062 267.589844 469.4375 267.746094 C 472.582031 267.898438 475.722656 268.128906 478.859375 268.4375 C 481.992188 268.746094 485.117188 269.132812 488.234375 269.597656 C 491.351562 270.058594 494.453125 270.597656 497.542969 271.210938 C 500.632812 271.824219 503.703125 272.515625 506.761719 273.28125 C 509.816406 274.046875 512.851562 274.886719 515.867188 275.800781 C 518.878906 276.714844 521.871094 277.703125 524.835938 278.765625 C 527.800781 279.824219 530.738281 280.957031 533.652344 282.164062 C 536.5625 283.371094 539.441406 284.644531 542.289062 285.992188 C 545.136719 287.339844 547.949219 288.753906 550.726562 290.238281 C 553.503906 291.726562 556.246094 293.277344 558.945312 294.898438 C 561.648438 296.515625 564.308594 298.199219 566.925781 299.949219 C 569.546875 301.699219 572.121094 303.515625 574.652344 305.390625 C 577.183594 307.265625 579.664062 309.203125 582.097656 311.203125 C 584.535156 313.203125 586.917969 315.257812 589.253906 317.375 C 591.585938 319.488281 593.867188 321.660156 596.09375 323.886719 C 598.324219 326.117188 600.496094 328.398438 602.609375 330.730469 C 604.726562 333.066406 606.78125 335.449219 608.78125 337.882812 C 610.777344 340.320312 612.714844 342.800781 614.59375 345.332031 C 616.46875 347.863281 618.28125 350.4375 620.03125 353.054688 C 621.78125 355.675781 623.46875 358.335938 625.085938 361.039062 C 626.707031 363.738281 628.257812 366.480469 629.742188 369.257812 C 631.226562 372.035156 632.644531 374.847656 633.992188 377.695312 C 635.339844 380.542969 636.613281 383.421875 637.820312 386.332031 C 639.023438 389.242188 640.160156 392.179688 641.21875 395.148438 C 642.28125 398.113281 643.269531 401.105469 644.183594 404.117188 C 645.097656 407.132812 645.9375 410.167969 646.703125 413.222656 C 647.46875 416.277344 648.160156 419.351562 648.773438 422.441406 C 649.386719 425.53125 649.925781 428.632812 650.386719 431.75 C 650.851562 434.867188 651.234375 437.992188 651.542969 441.125 C 651.851562 444.261719 652.085938 447.402344 652.238281 450.546875 C 652.394531 453.695312 652.472656 456.84375 652.472656 459.992188 L 679.96875 459.992188 C 680.867188 459.992188 681.765625 460.035156 682.664062 460.125 C 683.558594 460.210938 684.449219 460.34375 685.332031 460.519531 C 686.214844 460.695312 687.089844 460.914062 687.949219 461.175781 C 688.8125 461.4375 689.660156 461.742188 690.492188 462.085938 C 691.324219 462.429688 692.136719 462.8125 692.929688 463.238281 C 693.726562 463.664062 694.496094 464.125 695.246094 464.625 C 695.992188 465.125 696.714844 465.660156 697.414062 466.234375 C 698.109375 466.804688 698.773438 467.410156 699.410156 468.046875 C 700.046875 468.683594 700.652344 469.347656 701.222656 470.046875 C 701.796875 470.742188 702.332031 471.464844 702.832031 472.210938 C 703.332031 472.960938 703.792969 473.734375 704.21875 474.527344 C 704.644531 475.320312 705.027344 476.132812 705.371094 476.964844 C 705.71875 477.796875 706.019531 478.644531 706.28125 479.507812 C 706.542969 480.367188 706.761719 481.242188 706.9375 482.125 C 707.113281 483.007812 707.246094 483.898438 707.332031 484.792969 C 707.421875 485.691406 707.464844 486.589844 707.464844 487.488281 L 707.464844 569.980469 C 707.464844 570.878906 707.421875 571.777344 707.332031 572.675781 C 707.246094 573.570312 707.113281 574.460938 706.9375 575.34375 C 706.761719 576.226562 706.542969 577.101562 706.28125 577.960938 C 706.019531 578.824219 705.71875 579.671875 705.371094 580.503906 C 705.027344 581.335938 704.644531 582.148438 704.21875 582.941406 C 703.792969 583.738281 703.332031 584.507812 702.832031 585.257812 C 702.332031 586.003906 701.796875 586.726562 701.222656 587.425781 C 700.652344 588.121094 700.046875 588.785156 699.410156 589.421875 C 698.773438 590.058594 698.109375 590.664062 697.414062 591.234375 C 696.714844 591.808594 695.992188 592.34375 695.246094 592.84375 C 694.496094 593.34375 693.726562 593.804688 692.929688 594.230469 C 692.136719 594.65625 691.324219 595.039062 690.492188 595.382812 C 689.660156 595.730469 688.8125 596.03125 687.949219 596.292969 C 687.089844 596.554688 686.214844 596.773438 685.332031 596.949219 C 684.449219 597.125 683.558594 597.257812 682.664062 597.34375 C 681.765625 597.433594 680.867188 597.476562 679.96875 597.476562 L 652.472656 597.476562 L 652.472656 624.972656 C 652.472656 626.777344 652.382812 628.570312 652.207031 630.363281 C 652.03125 632.15625 651.765625 633.9375 651.414062 635.703125 C 651.0625 637.46875 650.625 639.214844 650.101562 640.9375 C 649.582031 642.660156 648.972656 644.355469 648.285156 646.019531 C 647.597656 647.683594 646.828125 649.308594 645.976562 650.898438 C 645.128906 652.488281 644.203125 654.03125 643.203125 655.527344 C 642.203125 657.023438 641.132812 658.46875 639.988281 659.863281 C 638.84375 661.253906 637.636719 662.585938 636.363281 663.859375 C 635.089844 665.132812 633.757812 666.34375 632.363281 667.484375 C 630.972656 668.628906 629.527344 669.699219 628.03125 670.699219 C 626.53125 671.699219 624.988281 672.625 623.402344 673.476562 C 621.8125 674.324219 620.1875 675.09375 618.523438 675.78125 C 616.859375 676.472656 615.164062 677.078125 613.441406 677.601562 C 611.71875 678.125 609.972656 678.558594 608.207031 678.910156 C 606.441406 679.261719 604.660156 679.527344 602.867188 679.703125 C 601.074219 679.878906 599.277344 679.96875 597.476562 679.96875 L 212.519531 679.96875 C 210.71875 679.96875 208.921875 679.878906 207.128906 679.703125 C 205.335938 679.527344 203.554688 679.261719 201.789062 678.910156 C 200.023438 678.558594 198.277344 678.125 196.554688 677.601562 C 194.832031 677.078125 193.136719 676.472656 191.472656 675.78125 C 189.808594 675.09375 188.183594 674.324219 186.59375 673.476562 C 185.003906 672.625 183.460938 671.699219 181.964844 670.699219 C 180.46875 669.699219 179.023438 668.628906 177.628906 667.484375 C 176.238281 666.34375 174.90625 665.132812 173.632812 663.859375 C 172.359375 662.585938 171.148438 661.253906 170.007812 659.863281 C 168.863281 658.46875 167.792969 657.023438 166.792969 655.527344 C 165.792969 654.03125 164.867188 652.488281 164.019531 650.898438 C 163.167969 649.308594 162.398438 647.683594 161.710938 646.019531 C 161.019531 644.355469 160.414062 642.660156 159.890625 640.9375 C 159.371094 639.214844 158.933594 637.46875 158.582031 635.703125 C 158.230469 633.9375 157.964844 632.15625 157.789062 630.363281 C 157.613281 628.570312 157.523438 626.777344 157.523438 624.972656 L 157.523438 597.476562 L 130.027344 597.476562 C 129.125 597.476562 128.226562 597.433594 127.332031 597.34375 C 126.4375 597.257812 125.546875 597.125 124.664062 596.949219 C 123.78125 596.773438 122.90625 596.554688 122.046875 596.292969 C 121.183594 596.03125 120.335938 595.730469 119.503906 595.382812 C 118.671875 595.039062 117.859375 594.65625 117.066406 594.230469 C 116.269531 593.804688 115.5 593.34375 114.75 592.84375 C 114 592.34375 113.277344 591.808594 112.582031 591.234375 C 111.886719 590.664062 111.21875 590.058594 110.582031 589.421875 C 109.945312 588.785156 109.34375 588.121094 108.773438 587.425781 C 108.199219 586.726562 107.664062 586.003906 107.164062 585.257812 C 106.664062 584.507812 106.203125 583.738281 105.777344 582.941406 C 105.351562 582.148438 104.96875 581.335938 104.625 580.503906 C 104.277344 579.671875 103.976562 578.824219 103.714844 577.960938 C 103.453125 577.101562 103.234375 576.226562 103.058594 575.34375 C 102.882812 574.460938 102.75 573.570312 102.664062 572.675781 C 102.574219 571.777344 102.53125 570.878906 102.53125 569.980469 L 102.53125 487.488281 C 102.53125 486.589844 102.574219 485.691406 102.664062 484.792969 C 102.75 483.898438 102.882812 483.007812 103.058594 482.125 C 103.234375 481.242188 103.453125 480.367188 103.714844 479.507812 C 103.976562 478.644531 104.277344 477.796875 104.625 476.964844 C 104.96875 476.132812 105.351562 475.320312 105.777344 474.527344 C 106.203125 473.734375 106.664062 472.960938 107.164062 472.210938 C 107.664062 471.464844 108.199219 470.742188 108.773438 470.046875 C 109.34375 469.347656 109.945312 468.683594 110.582031 468.046875 C 111.21875 467.410156 111.886719 466.804688 112.582031 466.234375 C 113.277344 465.664062 114 465.125 114.75 464.625 C 115.5 464.125 116.269531 463.664062 117.066406 463.238281 C 117.859375 462.8125 118.671875 462.429688 119.503906 462.085938 C 120.335938 461.742188 121.183594 461.4375 122.046875 461.175781 C 122.90625 460.914062 123.78125 460.695312 124.664062 460.519531 C 125.546875 460.34375 126.4375 460.210938 127.332031 460.125 C 128.226562 460.035156 129.125 459.992188 130.027344 459.992188 L 157.523438 459.992188 C 157.523438 456.84375 157.601562 453.695312 157.757812 450.546875 C 157.910156 447.402344 158.140625 444.261719 158.449219 441.125 C 158.757812 437.992188 159.144531 434.867188 159.609375 431.75 C 160.070312 428.632812 160.609375 425.53125 161.222656 422.441406 C 161.835938 419.351562 162.527344 416.277344 163.292969 413.222656 C 164.058594 410.167969 164.898438 407.132812 165.8125 404.117188 C 166.726562 401.105469 167.714844 398.113281 168.777344 395.148438 C 169.835938 392.179688 170.96875 389.242188 172.175781 386.332031 C 173.382812 383.421875 174.65625 380.542969 176.003906 377.695312 C 177.351562 374.847656 178.765625 372.035156 180.25 369.257812 C 181.738281 366.480469 183.289062 363.738281 184.910156 361.039062 C 186.527344 358.335938 188.210938 355.675781 189.960938 353.054688 C 191.710938 350.4375 193.527344 347.863281 195.402344 345.332031 C 197.277344 342.800781 199.214844 340.320312 201.214844 337.882812 C 203.214844 335.449219 205.269531 333.066406 207.386719 330.730469 C 209.5 328.398438 211.671875 326.117188 213.898438 323.886719 C 216.128906 321.660156 218.410156 319.488281 220.742188 317.375 C 223.078125 315.257812 225.460938 313.203125 227.894531 311.203125 C 230.332031 309.203125 232.8125 307.265625 235.34375 305.390625 C 237.875 303.515625 240.449219 301.699219 243.066406 299.949219 C 245.6875 298.199219 248.347656 296.515625 251.050781 294.898438 C 253.75 293.277344 256.492188 291.726562 259.269531 290.238281 C 262.046875 288.753906 264.859375 287.339844 267.707031 285.992188 C 270.554688 284.644531 273.433594 283.371094 276.34375 282.164062 C 279.253906 280.957031 282.191406 279.824219 285.160156 278.765625 C 288.125 277.703125 291.117188 276.714844 294.128906 275.800781 C 297.144531 274.886719 300.179688 274.046875 303.234375 273.28125 C 306.289062 272.515625 309.363281 271.824219 312.453125 271.210938 C 315.542969 270.597656 318.644531 270.058594 321.761719 269.597656 C 324.878906 269.132812 328.003906 268.746094 331.136719 268.4375 C 334.273438 268.128906 337.414062 267.898438 340.558594 267.746094 C 343.707031 267.589844 346.855469 267.511719 350.003906 267.511719 L 377.5 267.511719 L 377.5 232.589844 C 361.003906 223.242188 350.003906 205.367188 350.003906 185.019531 C 350.003906 183.21875 350.09375 181.421875 350.269531 179.628906 C 350.445312 177.839844 350.707031 176.058594 351.058594 174.292969 C 351.410156 172.527344 351.847656 170.78125 352.371094 169.058594 C 352.894531 167.332031 353.5 165.640625 354.191406 163.976562 C 354.878906 162.3125 355.648438 160.6875 356.496094 159.097656 C 357.347656 157.507812 358.269531 155.964844 359.273438 154.46875 C 360.273438 152.96875 361.34375 151.527344 362.488281 150.132812 C 363.628906 148.742188 364.835938 147.40625 366.109375 146.132812 C 367.382812 144.859375 368.71875 143.652344 370.109375 142.511719 C 371.503906 141.367188 372.945312 140.296875 374.445312 139.296875 C 375.941406 138.292969 377.484375 137.371094 379.074219 136.519531 C 380.664062 135.671875 382.289062 134.902344 383.953125 134.214844 C 385.617188 133.523438 387.308594 132.917969 389.035156 132.394531 C 390.757812 131.871094 392.503906 131.433594 394.269531 131.082031 C 396.035156 130.730469 397.816406 130.46875 399.605469 130.292969 C 401.398438 130.117188 403.195312 130.027344 404.996094 130.027344 M 281.261719 432.496094 C 280.136719 432.496094 279.011719 432.523438 277.886719 432.578125 C 276.765625 432.632812 275.644531 432.714844 274.523438 432.824219 C 273.402344 432.9375 272.289062 433.074219 271.175781 433.238281 C 270.0625 433.402344 268.953125 433.597656 267.851562 433.816406 C 266.746094 434.035156 265.648438 434.28125 264.558594 434.554688 C 263.464844 434.828125 262.382812 435.128906 261.304688 435.453125 C 260.230469 435.78125 259.160156 436.132812 258.101562 436.511719 C 257.042969 436.890625 255.992188 437.296875 254.953125 437.726562 C 253.914062 438.15625 252.886719 438.613281 251.871094 439.09375 C 250.851562 439.574219 249.847656 440.082031 248.855469 440.613281 C 247.863281 441.140625 246.886719 441.695312 245.921875 442.273438 C 244.957031 442.851562 244.003906 443.453125 243.070312 444.078125 C 242.132812 444.703125 241.214844 445.351562 240.3125 446.023438 C 239.40625 446.691406 238.519531 447.386719 237.652344 448.097656 C 236.78125 448.8125 235.929688 449.546875 235.097656 450.300781 C 234.261719 451.058594 233.449219 451.832031 232.652344 452.628906 C 231.855469 453.425781 231.082031 454.238281 230.324219 455.074219 C 229.570312 455.90625 228.835938 456.757812 228.121094 457.628906 C 227.410156 458.496094 226.714844 459.382812 226.046875 460.289062 C 225.375 461.191406 224.730469 462.109375 224.101562 463.046875 C 223.476562 463.980469 222.875 464.933594 222.296875 465.898438 C 221.71875 466.863281 221.164062 467.839844 220.636719 468.832031 C 220.105469 469.824219 219.597656 470.828125 219.117188 471.847656 C 218.636719 472.863281 218.179688 473.890625 217.75 474.929688 C 217.320312 475.96875 216.914062 477.019531 216.535156 478.078125 C 216.15625 479.136719 215.804688 480.207031 215.476562 481.28125 C 215.152344 482.359375 214.851562 483.441406 214.578125 484.535156 C 214.304688 485.625 214.058594 486.722656 213.839844 487.828125 C 213.621094 488.929688 213.425781 490.039062 213.261719 491.152344 C 213.097656 492.265625 212.960938 493.378906 212.847656 494.5 C 212.738281 495.621094 212.65625 496.742188 212.601562 497.863281 C 212.546875 498.988281 212.519531 500.113281 212.519531 501.238281 C 212.519531 502.363281 212.546875 503.488281 212.601562 504.609375 C 212.65625 505.734375 212.738281 506.855469 212.847656 507.976562 C 212.960938 509.09375 213.097656 510.210938 213.261719 511.324219 C 213.425781 512.4375 213.621094 513.546875 213.839844 514.648438 C 214.058594 515.75 214.304688 516.847656 214.578125 517.941406 C 214.851562 519.03125 215.152344 520.117188 215.476562 521.191406 C 215.804688 522.269531 216.15625 523.335938 216.535156 524.394531 C 216.914062 525.457031 217.320312 526.503906 217.75 527.542969 C 218.179688 528.582031 218.636719 529.613281 219.117188 530.628906 C 219.597656 531.644531 220.105469 532.648438 220.636719 533.640625 C 221.164062 534.632812 221.71875 535.613281 222.296875 536.578125 C 222.875 537.542969 223.476562 538.492188 224.101562 539.429688 C 224.726562 540.363281 225.375 541.285156 226.046875 542.1875 C 226.714844 543.089844 227.410156 543.976562 228.121094 544.847656 C 228.835938 545.71875 229.570312 546.570312 230.324219 547.402344 C 231.082031 548.234375 231.855469 549.050781 232.652344 549.847656 C 233.449219 550.640625 234.261719 551.417969 235.097656 552.171875 C 235.929688 552.929688 236.78125 553.664062 237.652344 554.375 C 238.519531 555.089844 239.40625 555.78125 240.3125 556.453125 C 241.214844 557.121094 242.132812 557.769531 243.070312 558.394531 C 244.003906 559.019531 244.957031 559.621094 245.921875 560.199219 C 246.886719 560.777344 247.863281 561.332031 248.855469 561.863281 C 249.847656 562.394531 250.851562 562.898438 251.871094 563.378906 C 252.886719 563.859375 253.914062 564.316406 254.953125 564.746094 C 255.992188 565.179688 257.042969 565.582031 258.101562 565.960938 C 259.160156 566.339844 260.230469 566.695312 261.304688 567.019531 C 262.382812 567.347656 263.464844 567.648438 264.558594 567.921875 C 265.648438 568.195312 266.746094 568.441406 267.851562 568.660156 C 268.953125 568.878906 270.0625 569.070312 271.175781 569.234375 C 272.289062 569.402344 273.402344 569.539062 274.523438 569.648438 C 275.644531 569.757812 276.765625 569.84375 277.886719 569.898438 C 279.011719 569.953125 280.136719 569.980469 281.261719 569.980469 C 282.386719 569.980469 283.511719 569.953125 284.632812 569.898438 C 285.757812 569.84375 286.878906 569.757812 288 569.648438 C 289.117188 569.539062 290.234375 569.402344 291.347656 569.234375 C 292.460938 569.070312 293.570312 568.878906 294.671875 568.660156 C 295.773438 568.441406 296.871094 568.195312 297.964844 567.921875 C 299.054688 567.648438 300.140625 567.347656 301.214844 567.019531 C 302.292969 566.695312 303.359375 566.339844 304.417969 565.960938 C 305.480469 565.582031 306.527344 565.179688 307.566406 564.746094 C 308.605469 564.316406 309.636719 563.859375 310.652344 563.378906 C 311.667969 562.898438 312.671875 562.394531 313.664062 561.863281 C 314.65625 561.332031 315.636719 560.777344 316.601562 560.199219 C 317.566406 559.621094 318.515625 559.019531 319.453125 558.394531 C 320.386719 557.769531 321.308594 557.121094 322.210938 556.453125 C 323.113281 555.78125 324 555.089844 324.871094 554.375 C 325.742188 553.664062 326.59375 552.929688 327.425781 552.171875 C 328.257812 551.417969 329.074219 550.640625 329.871094 549.847656 C 330.664062 549.050781 331.441406 548.234375 332.195312 547.402344 C 332.953125 546.570312 333.6875 545.71875 334.398438 544.847656 C 335.113281 543.976562 335.804688 543.089844 336.476562 542.1875 C 337.144531 541.285156 337.792969 540.363281 338.417969 539.429688 C 339.042969 538.492188 339.644531 537.542969 340.222656 536.578125 C 340.800781 535.613281 341.355469 534.632812 341.886719 533.640625 C 342.417969 532.648438 342.921875 531.644531 343.402344 530.628906 C 343.882812 529.613281 344.339844 528.582031 344.769531 527.542969 C 345.203125 526.503906 345.605469 525.457031 345.984375 524.394531 C 346.363281 523.335938 346.71875 522.269531 347.042969 521.191406 C 347.371094 520.117188 347.671875 519.03125 347.945312 517.941406 C 348.214844 516.847656 348.464844 515.75 348.683594 514.648438 C 348.902344 513.546875 349.09375 512.4375 349.257812 511.324219 C 349.425781 510.210938 349.5625 509.09375 349.671875 507.976562 C 349.78125 506.855469 349.867188 505.734375 349.921875 504.609375 C 349.976562 503.488281 350.003906 502.363281 350.003906 501.238281 C 350.003906 500.113281 349.976562 498.988281 349.921875 497.863281 C 349.867188 496.742188 349.78125 495.621094 349.671875 494.5 C 349.5625 493.378906 349.425781 492.265625 349.257812 491.152344 C 349.09375 490.039062 348.902344 488.929688 348.683594 487.828125 C 348.464844 486.722656 348.214844 485.625 347.945312 484.535156 C 347.671875 483.441406 347.371094 482.359375 347.042969 481.28125 C 346.71875 480.207031 346.363281 479.136719 345.984375 478.078125 C 345.605469 477.019531 345.203125 475.96875 344.769531 474.929688 C 344.339844 473.890625 343.882812 472.863281 343.402344 471.847656 C 342.921875 470.828125 342.417969 469.824219 341.886719 468.832031 C 341.355469 467.839844 340.800781 466.863281 340.222656 465.898438 C 339.644531 464.933594 339.042969 463.980469 338.417969 463.046875 C 337.792969 462.109375 337.144531 461.191406 336.476562 460.289062 C 335.804688 459.382812 335.113281 458.496094 334.398438 457.628906 C 333.6875 456.757812 332.953125 455.90625 332.195312 455.074219 C 331.441406 454.238281 330.664062 453.425781 329.871094 452.628906 C 329.074219 451.832031 328.257812 451.058594 327.425781 450.300781 C 326.59375 449.546875 325.742188 448.8125 324.871094 448.097656 C 324 447.386719 323.113281 446.691406 322.210938 446.023438 C 321.308594 445.351562 320.386719 444.703125 319.453125 444.078125 C 318.515625 443.453125 317.566406 442.851562 316.601562 442.273438 C 315.636719 441.695312 314.65625 441.140625 313.664062 440.613281 C 312.671875 440.082031 311.667969 439.574219 310.652344 439.09375 C 309.636719 438.613281 308.605469 438.15625 307.566406 437.726562 C 306.527344 437.296875 305.480469 436.890625 304.417969 436.511719 C 303.359375 436.132812 302.292969 435.78125 301.214844 435.453125 C 300.140625 435.128906 299.054688 434.828125 297.964844 434.554688 C 296.871094 434.28125 295.773438 434.035156 294.671875 433.816406 C 293.570312 433.597656 292.460938 433.402344 291.347656 433.238281 C 290.234375 433.074219 289.117188 432.9375 288 432.824219 C 286.878906 432.714844 285.757812 432.632812 284.632812 432.578125 C 283.511719 432.523438 282.386719 432.496094 281.261719 432.496094 M 528.734375 432.496094 C 527.609375 432.496094 526.484375 432.523438 525.363281 432.578125 C 524.238281 432.632812 523.117188 432.714844 521.996094 432.824219 C 520.878906 432.9375 519.761719 433.074219 518.648438 433.238281 C 517.535156 433.402344 516.425781 433.597656 515.324219 433.816406 C 514.21875 434.035156 513.121094 434.28125 512.03125 434.554688 C 510.941406 434.828125 509.855469 435.128906 508.78125 435.453125 C 507.703125 435.78125 506.636719 436.132812 505.574219 436.511719 C 504.515625 436.890625 503.46875 437.296875 502.429688 437.726562 C 501.386719 438.15625 500.359375 438.613281 499.34375 439.09375 C 498.328125 439.574219 497.320312 440.082031 496.328125 440.613281 C 495.335938 441.140625 494.359375 441.695312 493.394531 442.273438 C 492.429688 442.851562 491.480469 443.453125 490.542969 444.078125 C 489.609375 444.703125 488.6875 445.351562 487.785156 446.023438 C 486.882812 446.691406 485.996094 447.386719 485.125 448.097656 C 484.253906 448.8125 483.402344 449.546875 482.570312 450.300781 C 481.734375 451.058594 480.921875 451.832031 480.125 452.628906 C 479.332031 453.425781 478.554688 454.238281 477.800781 455.074219 C 477.042969 455.90625 476.308594 456.757812 475.597656 457.628906 C 474.882812 458.496094 474.191406 459.382812 473.519531 460.289062 C 472.851562 461.191406 472.203125 462.109375 471.578125 463.046875 C 470.953125 463.980469 470.351562 464.933594 469.773438 465.898438 C 469.195312 466.863281 468.640625 467.839844 468.109375 468.832031 C 467.578125 469.824219 467.074219 470.828125 466.59375 471.847656 C 466.109375 472.863281 465.65625 473.890625 465.226562 474.929688 C 464.792969 475.96875 464.390625 477.019531 464.011719 478.078125 C 463.632812 479.136719 463.277344 480.207031 462.953125 481.28125 C 462.625 482.359375 462.324219 483.441406 462.050781 484.535156 C 461.777344 485.625 461.53125 486.722656 461.3125 487.828125 C 461.09375 488.929688 460.902344 490.039062 460.734375 491.152344 C 460.570312 492.265625 460.433594 493.378906 460.324219 494.5 C 460.210938 495.621094 460.128906 496.742188 460.074219 497.863281 C 460.019531 498.988281 459.992188 500.113281 459.992188 501.238281 C 459.992188 502.363281 460.019531 503.488281 460.074219 504.609375 C 460.128906 505.734375 460.210938 506.855469 460.324219 507.976562 C 460.433594 509.09375 460.570312 510.210938 460.734375 511.324219 C 460.902344 512.4375 461.09375 513.546875 461.3125 514.648438 C 461.53125 515.75 461.777344 516.847656 462.050781 517.941406 C 462.324219 519.03125 462.625 520.117188 462.953125 521.191406 C 463.277344 522.269531 463.632812 523.335938 464.011719 524.394531 C 464.390625 525.457031 464.792969 526.503906 465.222656 527.542969 C 465.65625 528.582031 466.109375 529.613281 466.59375 530.628906 C 467.074219 531.644531 467.578125 532.648438 468.109375 533.640625 C 468.640625 534.632812 469.195312 535.613281 469.773438 536.578125 C 470.351562 537.542969 470.953125 538.492188 471.578125 539.429688 C 472.203125 540.363281 472.851562 541.285156 473.519531 542.1875 C 474.191406 543.089844 474.882812 543.976562 475.597656 544.847656 C 476.308594 545.71875 477.042969 546.570312 477.800781 547.402344 C 478.554688 548.234375 479.332031 549.050781 480.125 549.847656 C 480.921875 550.640625 481.734375 551.417969 482.570312 552.171875 C 483.402344 552.929688 484.253906 553.664062 485.125 554.375 C 485.996094 555.089844 486.882812 555.78125 487.785156 556.453125 C 488.6875 557.121094 489.609375 557.769531 490.542969 558.394531 C 491.480469 559.019531 492.429688 559.621094 493.394531 560.199219 C 494.359375 560.777344 495.335938 561.332031 496.328125 561.863281 C 497.320312 562.394531 498.328125 562.898438 499.34375 563.378906 C 500.359375 563.859375 501.386719 564.316406 502.429688 564.746094 C 503.46875 565.179688 504.515625 565.582031 505.574219 565.960938 C 506.636719 566.339844 507.703125 566.695312 508.78125 567.019531 C 509.855469 567.347656 510.941406 567.648438 512.03125 567.921875 C 513.121094 568.195312 514.21875 568.441406 515.324219 568.660156 C 516.425781 568.878906 517.535156 569.070312 518.648438 569.234375 C 519.761719 569.402344 520.878906 569.539062 521.996094 569.648438 C 523.117188 569.757812 524.238281 569.84375 525.363281 569.898438 C 526.484375 569.953125 527.609375 569.980469 528.734375 569.980469 C 529.859375 569.980469 530.984375 569.953125 532.109375 569.898438 C 533.230469 569.84375 534.351562 569.757812 535.472656 569.648438 C 536.59375 569.539062 537.707031 569.402344 538.820312 569.234375 C 539.933594 569.070312 541.042969 568.878906 542.144531 568.660156 C 543.25 568.441406 544.347656 568.195312 545.4375 567.921875 C 546.527344 567.648438 547.613281 567.347656 548.691406 567.019531 C 549.765625 566.695312 550.832031 566.339844 551.894531 565.960938 C 552.953125 565.582031 554 565.179688 555.042969 564.746094 C 556.082031 564.316406 557.109375 563.859375 558.125 563.378906 C 559.144531 562.898438 560.148438 562.394531 561.140625 561.863281 C 562.132812 561.332031 563.109375 560.777344 564.074219 560.199219 C 565.039062 559.621094 565.992188 559.019531 566.925781 558.394531 C 567.859375 557.769531 568.78125 557.121094 569.683594 556.453125 C 570.589844 555.78125 571.476562 555.089844 572.34375 554.375 C 573.214844 553.664062 574.066406 552.929688 574.898438 552.171875 C 575.734375 551.417969 576.546875 550.640625 577.34375 549.847656 C 578.136719 549.050781 578.914062 548.234375 579.667969 547.402344 C 580.425781 546.570312 581.160156 545.71875 581.875 544.847656 C 582.585938 543.976562 583.277344 543.089844 583.949219 542.1875 C 584.621094 541.285156 585.265625 540.363281 585.890625 539.429688 C 586.515625 538.492188 587.117188 537.542969 587.695312 536.578125 C 588.277344 535.613281 588.828125 534.632812 589.359375 533.640625 C 589.890625 532.648438 590.394531 531.644531 590.878906 530.628906 C 591.359375 529.613281 591.8125 528.582031 592.246094 527.542969 C 592.675781 526.503906 593.078125 525.457031 593.457031 524.394531 C 593.835938 523.335938 594.191406 522.269531 594.515625 521.191406 C 594.84375 520.117188 595.144531 519.03125 595.417969 517.941406 C 595.691406 516.847656 595.9375 515.75 596.15625 514.648438 C 596.375 513.546875 596.566406 512.4375 596.734375 511.324219 C 596.898438 510.210938 597.035156 509.09375 597.144531 507.976562 C 597.257812 506.855469 597.339844 505.734375 597.394531 504.609375 C 597.449219 503.488281 597.476562 502.363281 597.476562 501.238281 C 597.476562 500.113281 597.449219 498.988281 597.394531 497.863281 C 597.339844 496.742188 597.257812 495.621094 597.144531 494.5 C 597.035156 493.378906 596.898438 492.265625 596.734375 491.152344 C 596.566406 490.039062 596.375 488.929688 596.15625 487.828125 C 595.9375 486.722656 595.691406 485.625 595.417969 484.535156 C 595.144531 483.441406 594.84375 482.359375 594.515625 481.28125 C 594.191406 480.207031 593.835938 479.136719 593.457031 478.078125 C 593.078125 477.019531 592.675781 475.96875 592.246094 474.929688 C 591.8125 473.890625 591.359375 472.863281 590.878906 471.847656 C 590.394531 470.828125 589.890625 469.824219 589.359375 468.832031 C 588.828125 467.839844 588.277344 466.863281 587.695312 465.898438 C 587.117188 464.933594 586.515625 463.980469 585.890625 463.046875 C 585.265625 462.109375 584.621094 461.191406 583.949219 460.289062 C 583.277344 459.382812 582.585938 458.496094 581.875 457.628906 C 581.160156 456.757812 580.425781 455.90625 579.667969 455.074219 C 578.914062 454.238281 578.136719 453.425781 577.34375 452.628906 C 576.546875 451.832031 575.734375 451.058594 574.898438 450.300781 C 574.066406 449.546875 573.214844 448.8125 572.34375 448.097656 C 571.476562 447.386719 570.589844 446.691406 569.683594 446.023438 C 568.78125 445.351562 567.859375 444.703125 566.925781 444.078125 C 565.992188 443.453125 565.039062 442.851562 564.074219 442.273438 C 563.109375 441.695312 562.132812 441.140625 561.140625 440.613281 C 560.148438 440.082031 559.144531 439.574219 558.125 439.09375 C 557.109375 438.613281 556.082031 438.15625 555.042969 437.726562 C 554 437.296875 552.953125 436.890625 551.894531 436.511719 C 550.835938 436.132812 549.765625 435.78125 548.691406 435.453125 C 547.613281 435.128906 546.527344 434.828125 545.4375 434.554688 C 544.347656 434.28125 543.25 434.035156 542.144531 433.816406 C 541.042969 433.597656 539.933594 433.402344 538.820312 433.238281 C 537.707031 433.074219 536.59375 432.9375 535.472656 432.824219 C 534.351562 432.714844 533.230469 432.632812 532.109375 432.578125 C 530.984375 432.523438 529.859375 432.496094 528.734375 432.496094 Z M 528.734375 432.496094 "/></g></svg>